<?xml version="1.0" standalone="no"?>
<!DOCTYPE svg PUBLIC "-//W3C//DTD SVG 20010904//EN"
 "http://www.w3.org/TR/2001/REC-SVG-20010904/DTD/svg10.dtd">
<svg version="1.0" xmlns="http://www.w3.org/2000/svg"
 width="1000.000000pt" height="1000.000000pt" viewBox="0 0 1000.000000 1000.000000"
 preserveAspectRatio="xMidYMid meet">
<metadata>
Created by potrace 1.11, written by Peter Selinger 2001-2013
</metadata>
<g transform="translate(0.000000,1000.000000) scale(0.100000,-0.100000)"
fill="#000000" stroke="none">
<path d="M525 9985 c-236 -52 -426 -225 -497 -455 l-23 -75 0 -4455 0 -4455
23 -75 c64 -206 218 -363 431 -438 l76 -27 1060 -3 c583 -1 1159 -1 1280 0
l219 3 -94 57 c-746 445 -1256 1124 -1605 2138 -156 452 -276 951 -596 2480
-244 1165 -306 1853 -223 2495 78 607 299 1148 679 1661 346 468 726 813 1205
1096 l115 68 -995 -1 c-784 0 -1008 -3 -1055 -14z"/>
<path d="M7005 9934 c361 -241 682 -548 963 -920 86 -114 237 -347 317 -489
130 -229 344 -691 327 -706 -4 -3 -596 -131 -1317 -283 -720 -153 -1319 -280
-1330 -282 -17 -4 -29 10 -69 83 -369 664 -867 907 -1564 763 -439 -91 -794
-350 -952 -694 -92 -200 -120 -335 -127 -612 -8 -312 17 -587 103 -1104 151
-920 447 -2181 631 -2688 137 -381 248 -583 416 -758 108 -113 192 -179 308
-239 182 -94 362 -135 598 -135 323 0 659 97 902 260 84 57 254 228 308 310
90 139 161 312 202 495 24 106 49 281 49 347 0 26 4 49 8 52 20 12 2663 568
2670 562 13 -13 14 -330 3 -538 -55 -955 -331 -1726 -857 -2385 -110 -138
-406 -431 -554 -549 -153 -122 -355 -259 -521 -353 l-124 -71 1035 2 1035 3
76 27 c213 75 367 232 431 438 l23 75 0 4455 0 4455 -23 75 c-64 206 -218 363
-431 438 l-76 27 -1279 3 -1279 2 98 -66z"/>
</g>
</svg>
