<?xml version="1.0" encoding="UTF-8" standalone="no"?>
<!-- Created with Inkscape (http://www.inkscape.org/) -->

<svg
   xmlns:dc="http://purl.org/dc/elements/1.1/"
   xmlns:cc="http://creativecommons.org/ns#"
   xmlns:rdf="http://www.w3.org/1999/02/22-rdf-syntax-ns#"
   xmlns:svg="http://www.w3.org/2000/svg"
   xmlns="http://www.w3.org/2000/svg"
   version="1.1"
   width="517"
   height="108.989"
   viewBox="0 -69.989 517 108.989"
   id="Layer_1"
   xml:space="preserve"><metadata
   id="metadata3053"><rdf:RDF><cc:Work
       rdf:about=""><dc:format>image/svg+xml</dc:format><dc:type
         rdf:resource="http://purl.org/dc/dcmitype/StillImage" /><dc:title></dc:title></cc:Work></rdf:RDF></metadata><defs
   id="defs3051" />
<linearGradient
   x1="-2320.9932"
   y1="1013.8057"
   x2="-2320.9932"
   y2="908.46863"
   id="SVGID_1_"
   gradientUnits="userSpaceOnUse"
   gradientTransform="matrix(1,0,0,-1,2767.9751,945.7754)">
	<stop
   id="stop3041"
   style="stop-color:#f9a551;stop-opacity:1"
   offset="0" />
	<stop
   id="stop3043"
   style="stop-color:#f47f20;stop-opacity:1"
   offset="1" />
</linearGradient>
<path
   d="m 457.756,-31.647 c 0,9.137 -5.98,16.851 -13.838,19.283 v -23.783 h -21.123 c 2.126,-8.55 9.391,-14.895 17.996,-14.895 h 16.96 v 19.395 h 0.005 z M 438.357,-4.54 c 0,12.182 -7.99,22.499 -18.471,25.737 v -31.719 h -28.17 c 2.877,-11.428 12.521,-19.868 24.006,-19.868 h 22.635 v 25.85 l 0,0 z m -19.392,-62.767 c -23.168,0 -42.001,20.29 -42.001,45.217 v 58.406 h 52.257 c 52.426,0 87.779,-65.03 87.779,-103.623 h -98.035 z"
   id="path3045"
   style="fill:url(#SVGID_1_)" />
<path
   d="m 212.584,-69.989 h -2.738 c -23.141,0 -40.633,20.597 -40.633,48.989 v 11.739 c 0,28.393 17.492,48.261 40.633,48.261 h 2.738 c 23.14,0 40.605,-19.868 40.605,-48.261 V -21 c 0,-28.393 -17.465,-48.989 -40.605,-48.989 z m 94.067,2.682 H 271.156 V 36.316 h 17.16 v -86.128 h 18.335 c 13.722,0 24.87,12.016 24.87,26.8 V 36.316 H 348.68 V -22.9 c 10e-4,-24.928 -18.836,-44.407 -42.029,-44.407 z m -171.03,43.569 H 118.35 c -14.476,0 -25.626,-16.713 -25.626,-31.496 V -67.306 H 75.565 v 11.96 c 0,24.957 18.863,49.131 42.785,49.131 h 17.046 c -1.48,15.73 -10.785,26.241 -23.25,26.241 h -8.439 V 37.52 h 8.439 c 23.139,0 40.605,-20.68 40.605,-49.073 V -67.306 H 135.62 v 43.568 z M 17.13,-11.357 v -8.274 c 0,-18.192 12.632,-30.181 26.242,-30.181 H 58.518 V -67.307 H 43.372 C 20.232,-67.307 0,-47.912 0,-19.519 v 8.046 C 0,16.921 20.959,37.52 44.126,37.52 H 68.97 V 20.025 H 44.126 C 30.516,20.025 17.13,6.834 17.13,-11.357 z m 219.405,2.096 c 0,17.856 -10.006,30.097 -23.811,30.097 h -2.74 c -13.805,0 -23.81,-12.241 -23.81,-30.097 V -21 c 0,-17.857 10.005,-30.824 23.81,-30.824 h 2.74 c 13.805,0 23.811,12.967 23.811,30.824 v 11.739 z"
   id="path3047"
   style="fill:#343433" />
</svg>