<svg xmlns="http://www.w3.org/2000/svg" viewBox="0 0 762 284">
  <path
    d="M517.35.72h54.38a7.452 7.452 0 017.45 7.45v1.45a44.7 44.7 0 01-44.7 44.7h-29.55a7.45 7.45 0 01-7.45-7.45V20.59a19.868 19.868 0 015.817-14.053A19.85 19.85 0 01517.35.72z"
    fill="#FF961F" />
  <path
    d="M359.38 70.22l-85.75 206.93a9.931 9.931 0 01-9.17 6.13H222a5 5 0 01-4.61-6.83l16.51-41a9.905 9.905 0 00-.11-7.69l-68.7-157.45a4.997 4.997 0 014.55-7h43.17a9.92 9.92 0 019.19 6.18l39.94 97.67a1.493 1.493 0 002.222.683c.247-.168.438-.406.548-.683l38.8-97.56a9.997 9.997 0 019.23-6.27h42.05a4.998 4.998 0 014.936 4.5 4.992 4.992 0 01-.346 2.39zM761 147.09v94.63a7.46 7.46 0 01-7.45 7.45h-37.34a7.46 7.46 0 01-7.45-7.45v-89.05c0-29.5-17.54-42.66-35.49-42.66-18.74 0-41.86 10-41.86 43.86v87.85a7.46 7.46 0 01-7.45 7.45h-37.34a7.46 7.46 0 01-7.45-7.45V70.8a7.46 7.46 0 017.45-7.45H624a7.46 7.46 0 017.45 7.45v16.26a1.476 1.476 0 001.152 1.455 1.48 1.48 0 001.668-.815c10.65-20.31 36.4-29.13 53-29.13 48.61 0 74.13 32.7 73.73 88.52z"
    fill="#131313" />
  <path
    d="M357.28 155.86c0-59 47.06-97.29 100.09-97.29s100.08 38.28 100.08 97.29c0 58.62-47.05 96.9-100.08 96.9s-100.09-38.28-100.09-96.9zm147.14 0c0-29.11-21.14-48.64-47-48.64s-47 19.53-47 48.64c0 28.71 21.13 48.25 47 48.25s47-19.54 47-48.25z"
    fill="#FF961F" />
  <path
    d="M103.48 204.11C74 204.11 54 183 54 155.46c0-27.11 19.94-48.24 49.45-48.24a51.192 51.192 0 0117.55 3.19 7.44 7.44 0 008.92-3.07l17.78-29.06a7.465 7.465 0 00.802-6.028 7.457 7.457 0 00-3.952-4.622 96.522 96.522 0 00-41.5-9.06C48.82 58.57.97 96.45.97 155.46s47.85 97.3 102.08 97.3c30.8 0 56-12.85 73.52-33.45a7.485 7.485 0 00-1.41-11l-27.14-19.11a7.493 7.493 0 00-9.63.94c-8.78 8.75-21.99 13.97-34.91 13.97z"
    fill="#131313" />
</svg>
