<?xml version="1.0" encoding="utf-8"?>
<!-- Generator: Adobe Illustrator 24.0.0, SVG Export Plug-In . SVG Version: 6.00 Build 0)  -->
<svg version="1.1" id="Layer_1" xmlns="http://www.w3.org/2000/svg" xmlns:xlink="http://www.w3.org/1999/xlink" x="0px" y="0px"
	 viewBox="0 0 512 512" style="enable-background:new 0 0 512 512;" xml:space="preserve">
<style type="text/css">
	.st0{fill:#eb8623;}
</style>
<g>
	<g>
		<path class="st0" d="M491.3,235.3H20.7C9.3,235.3,0,244.6,0,256c0,11.4,9.3,20.7,20.7,20.7h470.6c11.4,0,20.7-9.3,20.7-20.7
			C512,244.6,502.7,235.3,491.3,235.3z"/>
	</g>
</g>
<g>
	<g>
		<path class="st0" d="M491.3,78.4H20.7C9.3,78.4,0,87.7,0,99.1s9.3,20.7,20.7,20.7h470.6c11.4,0,20.7-9.3,20.7-20.7
			S502.7,78.4,491.3,78.4z"/>
	</g>
</g>
<g>
	<g>
		<path class="st0" d="M491.3,392.2H20.7C9.3,392.2,0,401.5,0,412.9s9.3,20.7,20.7,20.7h470.6c11.4,0,20.7-9.3,20.7-20.7
			S502.7,392.2,491.3,392.2z"/>
	</g>
</g>
</svg>
