<?xml version="1.0" encoding="utf-8"?>
<!-- Generator: Adobe Illustrator 25.0.1, SVG Export Plug-In . SVG Version: 6.00 Build 0)  -->
<svg version="1.1" id="Ebene_1" xmlns="http://www.w3.org/2000/svg" xmlns:xlink="http://www.w3.org/1999/xlink" x="0px" y="0px"
	 viewBox="0 0 574 157.3" style="enable-background:new 0 0 574 157.3;" xml:space="preserve">
<style type="text/css">
	.st0{clip-path:url(#SVGID_2_);fill:#EE7203;}
	.st1{clip-path:url(#SVGID_2_);fill:#FFFFFF;}
</style>
<g>
	<defs>
		<rect id="SVGID_1_" x="-133.9" y="-219" width="841.9" height="595.3"/>
	</defs>
	<clipPath id="SVGID_2_">
		<use xlink:href="#SVGID_1_"  style="overflow:visible;"/>
	</clipPath>
	<path class="st0" d="M566.9,157.3H246.6c-3.1,0-5.7-2.5-5.7-5.7V112c0-3.1,2.5-5.7,5.7-5.7h320.3c3.1,0,5.7,2.5,5.7,5.7v39.7
		C572.6,154.8,570.1,157.3,566.9,157.3"/>
	<path class="st0" d="M271,87c-9.4,0-17.1-3.4-23.1-9.4c-8.6-8.7-8.4-19.3-8.4-34.1c0-14.8-0.2-25.5,8.4-34.1c6-6,13.7-9.4,23.1-9.4
		c16,0,28.5,9.1,31.5,27h-17c-1.7-6.8-6-12.1-14.4-12.1c-4.6,0-8.3,1.7-10.7,4.4c-3.2,3.6-4.2,7.7-4.2,24.2c0,16.4,1,20.5,4.2,24.1
		c2.4,2.8,6.1,4.4,10.7,4.4c8.4,0,12.7-5.3,14.4-12.1h17C299.5,77.8,286.9,87,271,87 M353.3,79.3c-3.8,4.1-10.2,7.7-19.5,7.7
		c-9.3,0-15.5-3.6-19.3-7.7c-5.6-5.9-7.1-13-7.1-24.4c0-11.3,1.4-18.4,7.1-24.3c3.8-4.1,10.1-7.7,19.3-7.7c9.2,0,15.6,3.6,19.5,7.7
		c5.7,5.9,7.1,13,7.1,24.3C360.4,66.3,358.9,73.4,353.3,79.3 M341.2,39.8c-1.8-1.8-4.2-2.8-7.3-2.8c-3.1,0-5.4,1-7.2,2.8
		c-3.2,3.3-3.6,8.6-3.6,15.1c0,6.5,0.4,12,3.6,15.2c1.8,1.8,4.1,2.8,7.2,2.8c3.1,0,5.5-1,7.3-2.8c3.2-3.2,3.6-8.8,3.6-15.2
		C344.8,48.4,344.4,43,341.2,39.8 M404.6,86.2V48.4c0-8.5-5.4-11.4-10.3-11.4c-4.9,0-10.4,2.9-10.4,11.4v37.8h-15.6V23.7h15.3v5.8
		c4.1-4.3,9.8-6.5,15.6-6.5c6.3,0,11.3,2,14.8,5.5c5.1,5,6.4,10.9,6.4,17.8v40H404.6z M449.7,86.2c-12.7,0-18.2-9-18.2-17.9v-31H425
		V25.5h6.6V7c6.5,0,15.6-3.4,15.6-3.4v21.9h11v11.9h-11v30c0,3.6,1.7,5.6,5.4,5.6h5.6v13.2H449.7z M498.7,86.2v-5.4
		c-4.2,4.2-8.2,6-15.4,6c-7.1,0-12.3-1.8-16-5.5c-3.4-3.5-5.2-8.5-5.2-14.1c0-10,6.8-18.1,21.4-18.1h14.8V46c0-6.8-3.3-9.9-11.6-9.9
		c-6,0-8.8,1.4-12,5.2l-10-9.7c6.1-6.7,12.1-8.6,22.6-8.6c17.5,0,26.7,7.4,26.7,22.1v41.2H498.7z M498.3,59.8H486
		c-5.6,0-8.8,2.6-8.8,7.1c0,4.3,2.9,7.2,9,7.2c4.3,0,7.1-0.3,9.8-3c1.7-1.6,2.3-4.1,2.3-7.9V59.8z M566.9,79.3
		c-3.8,4.1-10.2,7.7-19.5,7.7c-9.2,0-15.5-3.6-19.3-7.7c-5.7-5.9-7.1-13-7.1-24.4c0-11.3,1.4-18.4,7.1-24.3
		c3.8-4.1,10.1-7.7,19.3-7.7c9.3,0,15.6,3.6,19.5,7.7c5.6,5.9,7.1,13,7.1,24.3C574,66.3,572.6,73.4,566.9,79.3 M554.8,39.8
		c-1.8-1.8-4.2-2.8-7.3-2.8c-3.1,0-5.4,1-7.2,2.8c-3.3,3.3-3.6,8.6-3.6,15.1c0,6.5,0.4,12,3.6,15.2c1.8,1.8,4.1,2.8,7.2,2.8
		c3.1,0,5.5-1,7.3-2.8c3.2-3.2,3.6-8.8,3.6-15.2C558.4,48.4,558,43,554.8,39.8"/>
	<path class="st1" d="M11.8,1.4C5.3,1.4,0,6.7,0,13.2v132.4c0,6.5,5.3,11.7,11.8,11.7h154.9c6.5,0,11.8-5.3,11.8-11.7V13.2
		c0-6.5-5.3-11.7-11.8-11.7H11.8z"/>
	<path class="st0" d="M15.9,96c5,23.3,9.2,45.4,23.7,61.4H11.8C5.3,157.3,0,152,0,145.6V13.2C0,6.7,5.3,1.4,11.8,1.4h20.1
		c-4.8,4.4-9.1,9.4-12.8,15.1C3.2,40.8,9.8,67.4,15.9,96 M166.8,1.4h-31.5c7.5,7.5,13.8,17.1,18.5,29.1l-47.9,10.1
		C100.6,30.6,92.6,22.2,77,25.5c-8.6,1.8-14.3,6.7-16.8,11.9C57.1,44,55.5,51.3,63,86c7.4,34.7,11.8,40.8,17.3,45.5
		c4.5,3.8,11.7,5.9,20.3,4.1c15.6-3.3,19.5-14.2,20.1-25.5l47.9-10.1c1.1,24.8-6.5,44-20.1,57.3h18.2c6.5,0,11.8-5.3,11.8-11.7V13.2
		C178.6,6.7,173.3,1.4,166.8,1.4"/>
	<path class="st1" d="M275.6,143.9l-1.4-4.3h-8.6l-1.5,4.3h-4.9l8.8-24.2h3.7l8.8,24.2H275.6z M270,126.8l-3.1,8.8h6L270,126.8z"/>
	<path class="st1" d="M298.7,144.1c-3.7,0-6.5-0.8-8.8-3.2l3.1-3.1c1.5,1.5,3.6,2,5.8,2c2.8,0,4.3-1.1,4.3-3c0-0.9-0.2-1.6-0.7-2
		c-0.5-0.4-1-0.7-2.1-0.9l-2.9-0.4c-2.1-0.3-3.6-1-4.7-2c-1.2-1.2-1.7-2.7-1.7-4.8c0-4.3,3.2-7.3,8.4-7.3c3.3,0,5.7,0.8,7.8,2.8
		l-3,3c-1.5-1.5-3.4-1.7-5-1.7c-2.5,0-3.7,1.4-3.7,3.1c0,0.6,0.2,1.3,0.7,1.7c0.5,0.4,1.3,0.8,2.2,1l2.9,0.4
		c2.2,0.3,3.6,0.9,4.6,1.9c1.3,1.2,1.9,3,1.9,5.1C307.7,141.4,303.8,144.1,298.7,144.1"/>
	<path class="st1" d="M327.1,144.1c-3.7,0-6.5-0.8-8.8-3.2l3.1-3.1c1.5,1.5,3.6,2,5.8,2c2.8,0,4.3-1.1,4.3-3c0-0.9-0.2-1.6-0.7-2
		c-0.5-0.4-1-0.7-2.1-0.9l-2.9-0.4c-2.1-0.3-3.6-1-4.7-2c-1.2-1.2-1.7-2.7-1.7-4.8c0-4.3,3.2-7.3,8.4-7.3c3.3,0,5.7,0.8,7.8,2.8
		l-3,3c-1.5-1.5-3.4-1.7-5-1.7c-2.5,0-3.7,1.4-3.7,3.1c0,0.6,0.2,1.3,0.7,1.7c0.5,0.4,1.3,0.8,2.2,1l2.9,0.4
		c2.2,0.3,3.6,0.9,4.6,1.9c1.3,1.2,1.9,3,1.9,5.1C336.1,141.4,332.1,144.1,327.1,144.1"/>
	<path class="st1" d="M363.7,141.4c-1.7,1.7-3.8,2.7-6.5,2.7c-2.8,0-4.9-1-6.6-2.7c-2.4-2.4-2.4-5.5-2.4-9.7c0-4.2-0.1-7.2,2.4-9.7
		c1.7-1.7,3.8-2.7,6.6-2.7c2.8,0,4.8,1,6.5,2.7c2.4,2.4,2.4,5.5,2.4,9.7C366.1,135.9,366.1,139,363.7,141.4 M360.2,125
		c-0.7-0.8-1.7-1.3-3-1.3c-1.3,0-2.4,0.5-3.1,1.3c-0.9,1-1.2,2.1-1.2,6.8c0,4.7,0.2,5.8,1.2,6.8c0.7,0.8,1.8,1.3,3.1,1.3
		c1.3,0,2.3-0.5,3-1.3c0.9-1,1.2-2.1,1.2-6.8C361.3,127.1,361.1,126,360.2,125"/>
	<path class="st1" d="M387.5,144.1c-2.6,0-4.8-0.9-6.5-2.7c-1.1-1.1-1.7-2.3-2-3.6c-0.3-1.4-0.4-3.4-0.4-6c0-2.7,0.1-4.7,0.4-6
		c0.3-1.4,0.9-2.6,2-3.6c1.8-1.8,3.9-2.7,6.5-2.7c4.7,0,8.1,2.7,8.9,7.6h-4.8c-0.5-2.1-1.8-3.4-4.1-3.4c-1.3,0-2.3,0.4-3,1.3
		c-1,1.1-1.2,2.1-1.2,6.8c0,4.7,0.2,5.8,1.2,6.8c0.7,0.9,1.7,1.3,3,1.3c2.3,0,3.6-1.4,4.1-3.4h4.8
		C395.6,141.3,392.1,144.1,387.5,144.1"/>
	<rect x="409" y="119.7" class="st1" width="4.7" height="24.2"/>
	<path class="st1" d="M441.6,143.9l-1.4-4.3h-8.6l-1.5,4.3h-4.9l8.8-24.2h3.7l8.8,24.2H441.6z M436,126.8l-3.1,8.8h6L436,126.8z"/>
	<polygon class="st1" points="465.2,123.9 465.2,143.9 460.5,143.9 460.5,123.9 454.2,123.9 454.2,119.7 471.6,119.7 471.6,123.9 	
		"/>
	<rect x="483.9" y="119.7" class="st1" width="4.7" height="24.2"/>
	<path class="st1" d="M517.4,141.4c-1.7,1.7-3.8,2.7-6.5,2.7c-2.8,0-4.9-1-6.6-2.7c-2.4-2.4-2.4-5.5-2.4-9.7c0-4.2-0.1-7.2,2.4-9.7
		c1.7-1.7,3.8-2.7,6.6-2.7c2.8,0,4.8,1,6.5,2.7c2.4,2.4,2.4,5.5,2.4,9.7C519.9,135.9,519.9,139,517.4,141.4 M513.9,125
		c-0.7-0.8-1.7-1.3-3-1.3c-1.3,0-2.4,0.5-3.1,1.3c-0.9,1-1.2,2.1-1.2,6.8c0,4.7,0.2,5.8,1.2,6.8c0.7,0.8,1.8,1.3,3.1,1.3
		c1.3,0,2.3-0.5,3-1.3c0.9-1,1.2-2.1,1.2-6.8C515.1,127.1,514.9,126,513.9,125"/>
	<polygon class="st1" points="547.5,143.9 537.9,129 537.9,143.9 533.2,143.9 533.2,119.7 537.4,119.7 547,134.5 547,119.7 
		551.7,119.7 551.7,143.9 	"/>
</g>
</svg>
