<svg xmlns="http://www.w3.org/2000/svg" width="574.02" height="157.32" viewBox="0 0 574.02 157.32"><title>contao-association_original_rgb</title><rect x="240.94" y="106.3" width="331.65" height="51.02" rx="5.67" ry="5.67" style="fill:#f47c00"/><path d="M439.95,307a31.45,31.45,0,0,1-23.07-9.38c-8.64-8.65-8.42-19.34-8.42-34.1s-.23-25.46,8.42-34.12A31.5,31.5,0,0,1,439.95,220c16,0,28.47,9.13,31.48,27h-17c-1.68-6.85-6-12.12-14.41-12.12a13.84,13.84,0,0,0-10.68,4.41c-3.25,3.64-4.22,7.7-4.22,24.17s1,20.51,4.22,24.14A13.83,13.83,0,0,0,440.06,292c8.41,0,12.73-5.28,14.41-12.12h17C468.41,297.82,455.8,307,439.95,307Zm82.28-7.69C518.39,303.34,512,307,502.78,307s-15.5-3.61-19.35-7.69c-5.64-5.88-7.08-13-7.08-24.38s1.44-18.38,7.08-24.28c3.85-4.08,10.1-7.66,19.35-7.66s15.61,3.58,19.46,7.66c5.65,5.89,7.09,13,7.09,24.28S527.88,293.37,522.23,299.26ZM510.1,259.74a9.86,9.86,0,0,0-7.32-2.76,9.63,9.63,0,0,0-7.22,2.76c-3.23,3.25-3.6,8.64-3.6,15.14s.37,12,3.6,15.23a9.6,9.6,0,0,0,7.22,2.79,9.83,9.83,0,0,0,7.32-2.79c3.25-3.24,3.61-8.76,3.61-15.23S513.34,263,510.1,259.74Zm63.41,46.49V268.38c0-8.53-5.4-11.4-10.33-11.4s-10.44,2.87-10.44,11.4v37.84H537.1V243.63h15.28v5.78a21.33,21.33,0,0,1,15.6-6.48c6.26,0,11.3,2,14.78,5.53,5.06,5,6.37,10.9,6.37,17.76v40Zm45.16,0c-12.73,0-18.15-9-18.15-17.91v-31h-6.6V245.45h6.6v-18.5c6.53,0,15.63-3.43,15.63-3.43v21.93h11v11.89h-11v30c0,3.6,1.69,5.65,5.42,5.65h5.63v13.21Zm49,0v-5.4c-4.2,4.22-8.16,6-15.37,6s-12.25-1.79-16-5.54a20.08,20.08,0,0,1-5.16-14.06c0-10,6.84-18.12,21.38-18.12h14.76V266c0-6.83-3.34-9.86-11.63-9.86-6,0-8.77,1.45-12,5.18l-10-9.73c6.13-6.73,12.14-8.63,22.59-8.63,17.54,0,26.66,7.43,26.66,22.09v41.2Zm-.37-26.41H654.9c-5.65,0-8.77,2.63-8.77,7.06s2.88,7.21,9,7.21c4.31,0,7.09-.34,9.84-3,1.67-1.57,2.27-4.07,2.27-7.93Zm68.63,19.45C732,303.34,725.67,307,716.42,307s-15.5-3.61-19.34-7.69c-5.65-5.88-7.08-13-7.08-24.38s1.43-18.38,7.08-24.28c3.84-4.08,10.09-7.66,19.34-7.66s15.63,3.58,19.47,7.66c5.64,5.89,7.07,13,7.07,24.28S741.53,293.37,735.88,299.26Zm-12.13-39.52a9.91,9.91,0,0,0-7.34-2.76,9.56,9.56,0,0,0-7.2,2.76c-3.25,3.25-3.62,8.64-3.62,15.14s.37,12,3.62,15.23a9.53,9.53,0,0,0,7.2,2.79,9.88,9.88,0,0,0,7.34-2.79c3.23-3.24,3.59-8.76,3.59-15.23S727,263,723.75,259.74Z" transform="translate(-168.94 -219.98)" style="fill:#f47c00"/><path d="M180.76,221.4a11.81,11.81,0,0,0-11.82,11.74V365.56a11.81,11.81,0,0,0,11.82,11.74H335.7a11.81,11.81,0,0,0,11.82-11.74V233.14A11.81,11.81,0,0,0,335.7,221.4Z" transform="translate(-168.94 -219.98)" style="fill:#fff"/><path d="M184.81,315.95c5,23.26,9.16,45.41,23.73,61.35H180.76a11.81,11.81,0,0,1-11.82-11.74V233.14a11.81,11.81,0,0,1,11.82-11.74h20.08a76.8,76.8,0,0,0-12.78,15.1C172.16,260.8,178.69,287.34,184.81,315.95ZM335.7,221.4H304.19c7.46,7.46,13.75,17.12,18.5,29.13l-47.9,10.11c-5.25-10.06-13.23-18.43-28.84-15.14-8.61,1.82-14.32,6.65-16.85,11.94-3.11,6.52-4.64,13.83,2.8,48.57s11.82,40.8,17.32,45.5c4.47,3.8,11.68,5.91,20.29,4.09,15.62-3.29,19.47-14.16,20.15-25.47L337.56,320c1.13,24.78-6.54,44-20.08,57.29H335.7a11.81,11.81,0,0,0,11.82-11.74V233.14A11.81,11.81,0,0,0,335.7,221.4Z" transform="translate(-168.94 -219.98)" style="fill:#f47c00"/><path d="M444.54,363.84l-1.43-4.28h-8.6L433,363.84h-4.93l8.81-24.21h3.71l8.84,24.21Zm-5.64-17.07-3.06,8.81h6Z" transform="translate(-168.94 -219.98)" style="fill:#fff"/><path d="M467.62,364c-3.67,0-6.46-.78-8.84-3.2l3.06-3.06a7.92,7.92,0,0,0,5.85,2c2.79,0,4.28-1.05,4.28-3a2.69,2.69,0,0,0-.75-2,3.6,3.6,0,0,0-2.14-.85l-2.92-.41a8.22,8.22,0,0,1-4.69-2,6.4,6.4,0,0,1-1.73-4.76c0-4.32,3.2-7.34,8.43-7.34,3.33,0,5.75.82,7.82,2.82l-3,3a6.74,6.74,0,0,0-5-1.67c-2.52,0-3.74,1.39-3.74,3.06a2.34,2.34,0,0,0,.71,1.73,4.17,4.17,0,0,0,2.24,1l2.86.41a8,8,0,0,1,4.62,1.87,6.78,6.78,0,0,1,1.87,5.13C476.6,361.39,472.69,364,467.62,364Z" transform="translate(-168.94 -219.98)" style="fill:#fff"/><path d="M496,364c-3.67,0-6.46-.78-8.84-3.2l3.06-3.06a7.92,7.92,0,0,0,5.85,2c2.79,0,4.28-1.05,4.28-3a2.69,2.69,0,0,0-.75-2,3.61,3.61,0,0,0-2.14-.85l-2.92-.41a8.22,8.22,0,0,1-4.69-2,6.4,6.4,0,0,1-1.73-4.76c0-4.32,3.2-7.34,8.43-7.34,3.33,0,5.75.82,7.82,2.82l-3,3a6.74,6.74,0,0,0-5-1.67c-2.52,0-3.74,1.39-3.74,3.06a2.34,2.34,0,0,0,.71,1.73,4.16,4.16,0,0,0,2.24,1l2.86.41a8,8,0,0,1,4.62,1.87A6.78,6.78,0,0,1,505,356.7C505,361.39,501.08,364,496,364Z" transform="translate(-168.94 -219.98)" style="fill:#fff"/><path d="M532.59,361.39a9.4,9.4,0,0,1-13.09,0c-2.45-2.45-2.38-5.47-2.38-9.66s-.07-7.21,2.38-9.66a9.4,9.4,0,0,1,13.09,0c2.45,2.45,2.41,5.47,2.41,9.66S535,358.94,532.59,361.39Zm-3.5-16.46a3.93,3.93,0,0,0-3-1.29,4,4,0,0,0-3.06,1.29c-.92,1-1.16,2.14-1.16,6.8s.24,5.78,1.16,6.8a4,4,0,0,0,3.06,1.29,3.93,3.93,0,0,0,3-1.29c.92-1,1.19-2.14,1.19-6.8S530,346,529.09,344.94Z" transform="translate(-168.94 -219.98)" style="fill:#fff"/><path d="M556.43,364a8.87,8.87,0,0,1-6.53-2.65,7,7,0,0,1-2-3.64,44.56,44.56,0,0,1,0-12,6.87,6.87,0,0,1,2-3.64,8.87,8.87,0,0,1,6.53-2.65c4.66,0,8.09,2.72,8.91,7.65h-4.79c-.51-2.07-1.8-3.43-4.08-3.43a3.74,3.74,0,0,0-3,1.26c-1,1.05-1.19,2.14-1.19,6.83s.2,5.78,1.19,6.83a3.74,3.74,0,0,0,3,1.26c2.28,0,3.57-1.36,4.08-3.43h4.79C564.52,361.32,561.05,364,556.43,364Z" transform="translate(-168.94 -219.98)" style="fill:#fff"/><path d="M577.92,363.84V339.63h4.73v24.21Z" transform="translate(-168.94 -219.98)" style="fill:#fff"/><path d="M610.56,363.84l-1.43-4.28h-8.6l-1.46,4.28h-4.93l8.81-24.21h3.71l8.84,24.21Zm-5.64-17.07-3.06,8.81h6Z" transform="translate(-168.94 -219.98)" style="fill:#fff"/><path d="M634.19,343.85v20h-4.72v-20h-6.32v-4.21h17.37v4.21Z" transform="translate(-168.94 -219.98)" style="fill:#fff"/><path d="M652.85,363.84V339.63h4.73v24.21Z" transform="translate(-168.94 -219.98)" style="fill:#fff"/><path d="M686.38,361.39a9.4,9.4,0,0,1-13.09,0c-2.45-2.45-2.38-5.47-2.38-9.66s-.07-7.21,2.38-9.66a9.4,9.4,0,0,1,13.09,0c2.45,2.45,2.41,5.47,2.41,9.66S688.82,358.94,686.38,361.39Zm-3.5-16.46a3.93,3.93,0,0,0-3-1.29,4,4,0,0,0-3.06,1.29c-.92,1-1.16,2.14-1.16,6.8s.24,5.78,1.16,6.8a4,4,0,0,0,3.06,1.29,3.93,3.93,0,0,0,3-1.29c.92-1,1.19-2.14,1.19-6.8S683.79,346,682.87,344.94Z" transform="translate(-168.94 -219.98)" style="fill:#fff"/><path d="M716.43,363.84,706.84,349v14.86h-4.73V339.63h4.22l9.59,14.82V339.63h4.73v24.21Z" transform="translate(-168.94 -219.98)" style="fill:#fff"/></svg>